<?xml version="1.0" encoding="UTF-8"?><svg id="Layer_1" xmlns="http://www.w3.org/2000/svg" viewBox="0 0 230.75 74.26"><path d="M29.06,46.01c-2.4-2.33-3.6-5.29-3.6-8.88s1.2-6.55,3.6-8.88c2.4-2.33,5.44-3.5,9.13-3.5,2.92,0,5.47.77,7.64,2.31v5.53h-.61c-.66-.84-1.43-1.53-2.31-2.07s-1.7-.91-2.46-1.1c-.76-.19-1.51-.29-2.26-.29-1.4,0-2.66.35-3.77,1.04-1.11.69-1.98,1.64-2.6,2.85-.62,1.21-.93,2.59-.93,4.13,0,2.33.71,4.24,2.12,5.74,1.41,1.49,3.25,2.24,5.52,2.24,1.4,0,2.52-.18,3.36-.54v-8.05h5.33v10.7c-.95.61-2.26,1.14-3.94,1.6-1.68.45-3.37.68-5.09.68-3.69,0-6.73-1.17-9.13-3.5Z"/><path d="M50.79,25.3h17.66v4.38h-12.29c0,3.19,3.62,4.79,10.87,4.79v4.38c-4.8,0-8.42-.84-10.87-2.51v8.25h12.29v4.38h-17.66v-23.66Z"/><path d="M92.45,46.01c-2.4,2.33-5.44,3.5-9.13,3.5s-6.73-1.17-9.13-3.5-3.6-5.29-3.6-8.86c0-2.38.54-4.5,1.63-6.38,1.09-1.88,2.6-3.35,4.55-4.41,1.95-1.06,4.13-1.6,6.55-1.6s4.61.53,6.55,1.6c1.95,1.06,3.46,2.54,4.55,4.41,1.09,1.88,1.63,4.01,1.63,6.38,0,3.58-1.2,6.53-3.6,8.86ZM76.02,37.15c0,2.31.68,4.21,2.05,5.72s3.12,2.26,5.25,2.26,3.88-.75,5.25-2.26c1.37-1.51,2.05-3.42,2.05-5.74s-.68-4.23-2.05-5.74c-1.37-1.5-3.12-2.26-5.25-2.26-1.4,0-2.66.35-3.77,1.04-1.11.69-1.98,1.64-2.6,2.85-.62,1.21-.93,2.59-.93,4.13Z"/><path d="M109.48,40.44c0-5.7,3.57-9.06,8.25-9.03,2.85.04,5.77,1.56,6.66,4.41v-10.53h4.75v23.67h-4.75v-4.14c-.82,2.68-3.6,4.45-6.42,4.48-4.89.03-8.49-3.9-8.49-8.86ZM119.22,45.33c2.65-.03,4.96-2,4.96-4.92,0-3.19-2.27-5.06-4.96-5.09-2.75-.03-4.99,1.83-4.99,5.09,0,2.95,2.27,4.99,4.99,4.92Z"/><path d="M131.2,31.75h4.75v17.21h-4.75v-17.21Z"/><path d="M137.55,51.75c-.03-2.17,1.36-3.87,2.95-4.86-.54-.41-.85-.98-.81-1.83.03-.85.58-1.56,1.36-2.24-1.39-1.05-2.21-2.75-2.21-4.58,0-4.14,2.95-6.82,7.88-6.82,1.36,0,2.34.17,3.06.34h6.08v3.46h-2.61c.71.65,1.09,1.83,1.09,2.89,0,4.04-2.95,6.65-7.71,6.65-.58,0-1.73-.1-2.17-.2-.68.34-1.05.78-1.09,1.22,0,.71.71.85,1.87.85h3.53c3.84,0,7.3,1.29,7.27,5.09-.03,4.18-3.63,5.98-9.57,5.98-5.53,0-8.83-2.21-8.9-5.94ZM146.08,54.22c3.9,0,5.57-.68,5.6-2.27,0-1.63-1.15-2.44-3.53-2.44h-2.89c-1.97,0-3.39.75-3.36,2.48.07,1.63,1.43,2.24,4.18,2.24ZM146.62,40.88c2.24,0,3.36-1.02,3.36-2.78s-1.15-2.79-3.36-2.79c-2.41,0-3.43,1.05-3.43,2.85,0,1.63,1.02,2.72,3.43,2.72Z"/><path d="M158.23,31.75h4.75v17.21h-4.75v-17.21Z"/><path d="M167.7,42.27v-6.62h-2.61v-4.11c2.99-.03,2.61-3,2.61-6.25h4.75l.03,6.25h4.62v4.11h-4.65v6.01c0,2.85,2.44,3.84,5.13,2.78l.75,4.07c-4.55,1.87-10.63-.03-10.63-6.25Z"/><path d="M178.94,40.44c0-5.7,3.57-9.06,8.25-9.03,2.85.04,5.77,1.56,6.66,4.41v-4.07h4.75v17.21h-4.75v-4.14c-.82,2.68-3.6,4.45-6.42,4.48-4.89.03-8.49-3.9-8.49-8.86ZM188.69,45.33c2.65-.03,4.96-2,4.96-4.92,0-3.16-2.27-5.06-4.96-5.09-2.75-.03-4.99,1.83-4.99,5.09,0,2.95,2.27,4.99,4.99,4.92Z"/><path d="M200.5,25.29h4.79v23.67h-4.79v-23.67Z"/><path d="M133.62,24.75c1.29,0,2.55,1,2.55,2.54s-1.26,2.59-2.55,2.59-2.58-1-2.58-2.59,1.26-2.54,2.58-2.54Z"/><path d="M160.64,24.75c1.29,0,2.55,1,2.55,2.54s-1.26,2.59-2.55,2.59-2.58-1-2.58-2.59,1.26-2.54,2.58-2.54Z"/><path d="M102.79,41.21c2.09,0,4.12,1.61,4.12,4.11s-2.03,4.19-4.12,4.19-4.18-1.61-4.18-4.19,2.03-4.11,4.18-4.11Z" style="fill:#ffd520;"/></svg>